<svg xmlns="http://www.w3.org/2000/svg" width="178" height="150.14575215383164" viewBox="0 0 178 150.14575215383164" class="editor-view__logo-preview" data-v-719f541d="" data-v-75053935=""><svg id="mark" viewBox="0 0 642 704" width="100" height="109.65732087227414" x="39" y="0" data-v-719f541d="" style="fill: rgb(0, 0, 0);"><rect x="0" y="0" width="100%" height="100%" fill="none" data-v-719f541d=""></rect><g data-v-719f541d="">
	<path xmlns="http://www.w3.org/2000/svg" d="M 172.428 108.038 C 164.534 110.541, 158.948 114.369, 153.403 121.075 C 143.218 133.393, 114.087 180.377, 97.338 211.500 C 94.971 215.900, 93.026 218.630, 93.017 217.566 C 92.981 213.485, 89.029 207.385, 84.926 205.079 C 75.315 199.677, 56.491 205.098, 46.578 216.124 C 42.656 220.487, 42 221.826, 42 225.472 C 42 232.939, 46.565 235.885, 61 237.733 L 67.500 238.566 60 242.410 C 35.835 254.794, 23.078 267.521, 14.543 287.758 C 10.765 296.716, 7.367 308.165, 5.938 316.751 C 2.982 334.513, 3.030 370.402, 6.055 404 C 6.624 410.325, 8.185 427.425, 9.523 442 C 10.860 456.575, 12.872 479.300, 13.993 492.500 C 16.439 521.308, 16.661 522.649, 19.302 524.499 C 21.906 526.323, 31.456 529.309, 50 534.096 C 57.975 536.155, 63.855 537.876, 63.068 537.920 C 61.325 538.017, 47.635 536.469, 31.677 534.369 C 25.174 533.514, 19.690 532.977, 19.490 533.176 C 18.819 533.847, 24.022 560.118, 25.550 563.775 C 27.896 569.389, 31.766 573.867, 35.810 575.648 C 42.127 578.431, 108.905 579.310, 318.500 579.371 C 525.892 579.431, 589.117 578.562, 596.255 575.552 C 601.463 573.357, 605.543 567.303, 607.441 558.959 C 609.889 548.195, 612.309 532.975, 611.673 532.339 C 611.357 532.024, 607.364 532.473, 602.799 533.339 C 598.235 534.204, 589.579 535.410, 583.564 536.018 C 577.549 536.627, 571.249 537.326, 569.564 537.572 C 567.879 537.819, 572.280 536.453, 579.343 534.538 C 591.328 531.289, 609.856 524.974, 612.790 523.139 C 613.500 522.695, 614.500 519.445, 615.013 515.916 C 616.064 508.682, 618.454 472.248, 619.993 440 C 620.557 428.175, 621.546 411.075, 622.190 402 C 622.834 392.925, 623.392 372.675, 623.430 357 C 623.506 326.221, 622.505 317, 617.380 301.250 C 614.362 291.979, 606.975 277.198, 601.511 269.500 C 594.579 259.735, 582.559 249.014, 571.441 242.682 L 561.500 237.019 568.174 237.009 C 578.558 236.995, 584.593 235.227, 588.169 231.154 C 590.749 228.216, 591.141 227.089, 590.708 223.857 C 589.678 216.181, 579.912 207.630, 567.909 203.895 C 555.313 199.974, 545.501 202.585, 541.201 211 C 539.639 214.057, 539.081 216.462, 539.461 218.500 L 540.021 221.500 538.202 218.500 C 537.202 216.850, 531.961 206.950, 526.555 196.500 C 505.315 155.441, 482.037 120.512, 471.627 114.079 C 468.772 112.314, 454.269 106.013, 453.042 106.003 C 452.790 106.002, 454.401 107.912, 456.622 110.250 C 461.634 115.524, 472.023 129.062, 478.684 139 C 485.968 149.865, 493.845 163.778, 505.626 186.583 C 516.093 206.847, 519.884 215.729, 511.352 200 C 493.644 167.355, 475.553 137.114, 474.414 138.253 C 473.036 139.630, 497.741 190.964, 507.981 208 C 510.791 212.675, 515.432 218.908, 518.295 221.850 C 523.383 227.080, 523.433 227.188, 520.500 226.632 C 516.490 225.872, 479.226 223.245, 455.030 222.017 C 444.321 221.474, 410.346 220.497, 379.530 219.848 C 287.844 217.915, 155.311 221.268, 113 226.592 L 108.500 227.159 114.500 221.258 C 122.301 213.588, 127.924 203.990, 146.214 167.131 C 163.906 131.478, 161.214 134.078, 183 131.597 C 236.658 125.486, 307.786 123.398, 373.137 126.016 C 418.123 127.819, 462.583 132.128, 470.552 135.457 L 474.493 137.104 471.219 133.726 C 469.258 131.702, 465.851 129.690, 462.722 128.707 C 451.504 125.183, 420.127 121.666, 384.426 119.932 C 355.799 118.541, 242.587 119.237, 222 120.931 C 193.084 123.309, 169.916 127.429, 164.468 131.162 C 158.073 135.544, 141.395 162.417, 119.422 203.743 C 118.090 206.248, 117 207.701, 117 206.972 C 117 205.293, 138.410 164.777, 146.313 151.500 C 154.720 137.377, 170.498 114.738, 175.234 110.001 C 177.435 107.801, 179.070 106.025, 178.868 106.056 C 178.665 106.087, 175.767 106.979, 172.428 108.038 M 230.500 132.059 C 213.518 132.967, 201.807 134.296, 195.888 135.986 C 190.330 137.574, 184.447 142.378, 179.034 149.749 C 169.394 162.877, 142 213.377, 142 218.020 C 142 220.497, 143.862 220.705, 158.500 219.860 C 222.403 216.171, 441.782 215.993, 482.737 219.596 C 489.073 220.153, 490.058 220.014, 490.648 218.474 C 491.442 216.406, 473.752 180.528, 463.627 163.672 C 448.294 138.146, 444.019 135.295, 417.500 132.915 C 401.607 131.488, 253.815 130.812, 230.500 132.059 M 247.500 223.090 C 171.850 224.293, 122.938 226.376, 105.500 229.139 C 91.122 231.417, 73.791 236.875, 61.284 243.065 C 50.910 248.199, 48.235 250.031, 43.548 255.211 C 37.289 262.127, 33.508 270.565, 34.441 275.537 C 35.230 279.744, 40.068 284.081, 48.864 288.468 C 58.726 293.385, 66.796 295.311, 90.519 298.409 C 119.906 302.246, 128.151 303.838, 134.718 306.944 C 141.070 309.948, 143.565 312.639, 151.459 325 C 159.078 336.931, 165.772 344.600, 176.500 353.691 C 209.481 381.638, 241.063 393.178, 292.018 395.902 C 310.266 396.878, 339.158 395.974, 353.500 393.979 C 372.750 391.302, 392.516 385.634, 407.869 378.390 C 433.424 366.332, 449.340 352.416, 465.575 327.934 C 472.976 316.773, 477.082 311.550, 479.946 309.654 C 486.470 305.337, 497.142 302.355, 521.514 298.036 C 553.973 292.285, 569.318 287.542, 581.388 279.531 C 590.191 273.687, 591.990 267.386, 587.453 258.282 C 581.390 246.115, 562.773 237.042, 528.374 229.491 C 522.778 228.262, 492.542 225.933, 470.282 225.015 C 402.627 222.227, 337.301 221.662, 247.500 223.090 M 585.011 285.617 C 580.785 288.532, 553.873 299.017, 534 305.490 C 509.626 313.430, 499.300 319.375, 491.556 329.924 C 487.630 335.272, 484.263 344, 486.126 344 C 486.693 344, 496.684 337.711, 508.329 330.024 C 529.041 316.351, 532.070 314.273, 542.077 306.877 C 544.772 304.884, 554.521 300.183, 563.739 296.430 C 572.958 292.677, 582.300 288.509, 584.500 287.169 C 589.266 284.264, 589.453 284.113, 588.917 283.605 C 588.688 283.388, 586.930 284.293, 585.011 285.617 M 601.466 285.500 C 603.332 297.278, 604.202 307.266, 604.340 318.500 C 604.583 338.234, 603.548 339.679, 575.500 358.791 C 570.550 362.164, 560.875 368.984, 554 373.945 C 540.834 383.447, 527.741 390.820, 518.211 394.100 C 496.309 401.637, 411.584 417.471, 360 423.667 C 342.614 425.755, 306.239 425.989, 286 424.144 C 218.477 417.986, 145.687 407.350, 110.168 398.452 C 91.463 393.766, 82.946 389.469, 65.255 375.791 C 58.963 370.927, 48.997 363.467, 37 354.640 C 28.629 348.482, 21.273 341.407, 19.226 337.547 C 17.990 335.218, 17.617 331.672, 17.641 322.500 C 17.665 313.494, 17.486 311.748, 16.924 315.500 C 16.512 318.250, 16.136 324.124, 16.088 328.554 C 15.979 338.575, 18.791 344.998, 25.824 350.786 C 32.510 356.288, 75.307 386.099, 82.813 390.482 C 94.601 397.367, 111.056 401.859, 148.500 408.413 C 183.839 414.598, 205.252 417.693, 242 421.927 C 251.625 423.036, 264.225 424.519, 270 425.222 C 276.696 426.037, 292.817 426.487, 314.500 426.464 C 346.909 426.429, 349.669 426.276, 373.500 423.188 C 418.533 417.354, 439.410 413.903, 477.500 405.997 C 522.060 396.748, 530.764 393.321, 558.413 374.142 C 566.711 368.386, 578.675 360.329, 585 356.238 C 605.605 342.911, 606.571 341.339, 606.330 321.500 C 606.160 307.527, 604.077 289.731, 602.057 285 C 601.020 282.571, 601.004 282.585, 601.466 285.500 M 35.500 290 C 35.840 290.550, 36.316 291, 36.559 291 C 36.802 291, 37 290.550, 37 290 C 37 289.450, 36.523 289, 35.941 289 C 35.359 289, 35.160 289.450, 35.500 290 M 584.500 290.794 C 582.850 291.776, 575.091 295.434, 567.257 298.923 C 545.096 308.791, 534 315.886, 534 320.187 C 534 321.184, 534.283 322, 534.629 322 C 534.975 322, 543.188 319.725, 552.879 316.944 C 567.100 312.863, 589.513 308, 594.099 308 C 596.352 308, 594.035 293.801, 591.287 290.765 C 589.287 288.555, 588.253 288.559, 584.500 290.794 M 28.652 297.750 C 28.301 301.462, 28.011 306.170, 28.007 308.211 C 28 311.744, 28.204 311.975, 32.250 312.998 C 34.587 313.589, 43.025 315.918, 51 318.173 C 64.190 321.903, 80.273 325.910, 82.314 325.974 C 82.762 325.988, 82.106 324.182, 80.857 321.960 C 77.514 316.012, 68.244 310.276, 47 301.011 C 41.775 298.732, 35.839 295.547, 33.809 293.934 C 31.778 292.320, 29.931 291, 29.703 291 C 29.476 291, 29.002 294.038, 28.652 297.750 M 39.331 292.433 C 40.339 293.206, 47.089 296.169, 54.331 299.017 C 70.729 305.465, 77.176 309.017, 88.183 317.672 C 99.408 326.499, 129.563 345.388, 131.006 344.497 C 133.952 342.676, 128.445 331.517, 120.970 324.160 C 113.244 316.557, 99.021 310.571, 69.355 302.441 C 62.499 300.562, 52.527 297.225, 47.195 295.025 C 41.863 292.826, 38.324 291.659, 39.331 292.433 M 18.232 307 C 18.232 308.925, 18.438 309.712, 18.689 308.750 C 18.941 307.788, 18.941 306.212, 18.689 305.250 C 18.438 304.288, 18.232 305.075, 18.232 307 M 257.500 312.678 C 242.254 313.302, 219.733 315.201, 205 317.105 C 190.138 319.025, 176.543 321.657, 180.283 321.889 C 181.264 321.950, 184.189 323.076, 186.783 324.390 C 191.340 326.699, 191.739 326.734, 198.500 325.423 C 234.008 318.536, 328.049 316.923, 393.500 322.079 C 409.932 323.373, 427.920 325.586, 428.750 326.416 C 430.455 328.121, 426.061 328.272, 407.225 327.156 C 368.525 324.862, 341.580 324.034, 305.500 324.030 C 237.171 324.023, 189.242 327.743, 188.211 333.134 C 187.792 335.323, 196.714 345.378, 203.792 350.695 C 224.893 366.543, 263.182 374.980, 314 374.979 C 375.674 374.978, 415.623 361.071, 432.540 333.713 C 439.452 322.535, 439.470 322.516, 443.036 321.968 L 446.500 321.436 442 320.725 C 421.145 317.428, 390.137 314.300, 365.500 313.007 C 348.726 312.127, 276.359 311.906, 257.500 312.678 M 589 316.767 C 584.774 317.392, 573.546 320.784, 548 329.154 C 530.661 334.835, 519.738 339.074, 510.628 343.655 C 497.295 350.361, 489.534 354.867, 490.190 355.523 C 490.693 356.027, 508.760 351.899, 522.500 348.141 C 535.942 344.465, 546.616 340.724, 564.686 333.356 C 572.284 330.258, 581.650 326.706, 585.500 325.462 C 591.697 323.461, 592.538 322.889, 592.828 320.479 C 593.226 317.181, 592.297 316.280, 589 316.767 M 27.549 324.662 C 27.200 326.053, 27.389 327.764, 27.970 328.464 C 28.551 329.164, 33.183 331.449, 38.263 333.542 C 43.344 335.635, 55.452 340.869, 65.172 345.174 C 74.891 349.478, 83.230 353, 83.702 353 C 84.175 353, 85.064 351.669, 85.678 350.041 L 86.795 347.083 93.648 349.097 C 102.682 351.753, 120.977 355.979, 123.487 355.991 C 124.853 355.997, 123.859 354.913, 120.307 352.521 C 114.864 348.855, 107.874 345.485, 94.253 339.956 C 86.475 336.799, 85.933 336.710, 84.707 338.385 C 83.479 340.066, 82.924 339.993, 74.454 337.038 C 69.529 335.320, 57.625 331.432, 48 328.397 C 38.375 325.363, 29.979 322.712, 29.342 322.507 C 28.705 322.301, 27.898 323.271, 27.549 324.662 M 78.269 444.996 C 71.457 445.957, 60.584 448.571, 58.483 449.754 C 57.754 450.164, 64.434 450.528, 73.328 450.561 C 97.386 450.653, 114.760 454.715, 135.291 465.050 C 147.205 471.047, 152.060 474.309, 159.980 481.642 C 166.392 487.579, 167.645 491.049, 164.066 492.965 C 160.561 494.840, 127.894 493.893, 78.500 490.484 C 47.120 488.318, 35.098 486.917, 25.710 484.333 C 24.258 483.933, 24.510 484.799, 27.040 488.910 C 31.028 495.392, 36.897 500.487, 44.588 504.143 C 56.939 510.014, 56.897 510.012, 140.469 508.950 C 182.286 508.419, 231.800 507.554, 250.500 507.028 C 293.406 505.823, 343.868 505.806, 382.500 506.983 C 399 507.486, 445.408 508.426, 485.629 509.072 C 542.225 509.982, 560.312 509.977, 565.629 509.054 C 579.595 506.628, 595.551 498.364, 601.124 490.671 C 605.013 485.302, 604.919 483.876, 600.755 485.070 C 585.813 489.355, 484.224 495.915, 468.762 493.593 C 462.615 492.669, 460.725 490.861, 462.099 487.216 C 466.328 475.995, 495.874 459.891, 523.209 453.907 C 527.998 452.859, 538.994 451.092, 547.644 449.981 C 556.294 448.871, 563.542 447.791, 563.751 447.582 C 563.960 447.374, 560.839 446.595, 556.815 445.851 C 552.129 444.986, 542.132 444.516, 529 444.544 C 500.516 444.605, 494.053 446.242, 457.784 462.582 C 428.516 475.767, 417.275 478.827, 382.500 483.071 C 368.903 484.731, 357.292 485.256, 324.500 485.694 C 270.020 486.423, 240.914 484.659, 212.620 478.915 C 194.819 475.301, 183.922 471.337, 161.500 460.317 C 135.973 447.771, 125.652 445.029, 102 444.504 C 92.375 444.291, 81.696 444.512, 78.269 444.996 M 114.546 529.250 C 114.331 529.938, 113.602 532.975, 112.926 536 C 111.471 542.510, 108.766 549.115, 105.918 553.115 C 104.788 554.702, 104.320 556, 104.878 556 C 107.238 556, 179.255 546.958, 201.500 543.868 C 209.750 542.722, 217.162 541.422, 217.971 540.979 C 219.781 539.987, 217.368 539.548, 198.759 537.481 C 153.264 532.429, 131.680 529.946, 125.500 529.052 C 116.357 527.730, 115.014 527.754, 114.546 529.250 M 506.500 529.037 C 500.009 530.060, 474.429 533.212, 445.500 536.554 C 432.850 538.015, 421.892 539.544, 421.150 539.951 C 419.673 540.761, 428.379 542.207, 466.550 547.495 C 480.273 549.395, 499.264 552.087, 508.753 553.475 C 518.242 554.864, 526.220 556, 526.481 556 C 526.743 556, 525.195 553.274, 523.041 549.942 C 520.888 546.611, 517.936 540.311, 516.481 535.942 C 515.026 531.574, 513.310 528.056, 512.668 528.125 C 512.026 528.193, 509.250 528.604, 506.500 529.037" stroke="none" fill="inherit" fill-rule="evenodd"></path>
</g></svg><svg id="name" viewBox="0 0 178.94000244140625 32.65999984741211" width="178" height="32.48843128155749" x="0" y="117.65732087227414" data-v-719f541d="" style="fill: rgb(0, 0, 0);"><rect x="0" y="0" width="100%" height="100%" fill="none" data-v-719f541d=""></rect><g data-v-719f541d=""><path xmlns="http://www.w3.org/2000/svg" d="M24.43 0L32.75 0L21.30 32.29L11.45 32.29L0 0L8.37 0L16.38 24.38L24.43 0ZM60.63 10.40Q60.63 13.20 59.34 15.53Q58.05 17.85 55.38 19.27Q52.72 20.70 48.76 20.70L48.76 20.70L43.88 20.70L43.88 32.29L36.02 32.29L36.02 0L48.76 0Q52.62 0 55.29 1.33Q57.96 2.67 59.29 5.01Q60.63 7.36 60.63 10.40L60.63 10.40ZM48.16 14.44Q50.42 14.44 51.52 13.39Q52.62 12.33 52.62 10.40L52.62 10.40Q52.62 8.46 51.52 7.41Q50.42 6.35 48.16 6.35L48.16 6.35L43.88 6.35L43.88 14.44L48.16 14.44ZM63.16 19.41Q63.16 15.46 64.65 12.47Q66.15 9.48 68.72 7.87Q71.30 6.26 74.47 6.26L74.47 6.26Q77.19 6.26 79.23 7.36Q81.28 8.46 82.39 10.26L82.39 10.26L82.39 6.62L90.25 6.62L90.25 32.29L82.39 32.29L82.39 28.66Q81.24 30.45 79.19 31.56Q77.14 32.66 74.43 32.66L74.43 32.66Q71.30 32.66 68.72 31.03Q66.15 29.39 64.65 26.38Q63.16 23.37 63.16 19.41L63.16 19.41ZM82.39 19.46Q82.39 16.51 80.75 14.81Q79.12 13.11 76.77 13.11L76.77 13.11Q74.43 13.11 72.80 14.79Q71.16 16.47 71.16 19.41L71.16 19.41Q71.16 22.36 72.80 24.08Q74.43 25.81 76.77 25.81L76.77 25.81Q79.12 25.81 80.75 24.10Q82.39 22.40 82.39 19.46L82.39 19.46ZM103.82 10.90Q105.20 8.79 107.27 7.57Q109.34 6.35 111.87 6.35L111.87 6.35L111.87 14.67L109.71 14.67Q106.77 14.67 105.29 15.94Q103.82 17.20 103.82 20.38L103.82 20.38L103.82 32.29L95.96 32.29L95.96 6.62L103.82 6.62L103.82 10.90ZM123.51 10.90Q124.89 8.79 126.96 7.57Q129.03 6.35 131.56 6.35L131.56 6.35L131.56 14.67L129.40 14.67Q126.45 14.67 124.98 15.94Q123.51 17.20 123.51 20.38L123.51 20.38L123.51 32.29L115.64 32.29L115.64 6.62L123.51 6.62L123.51 10.90ZM147.02 32.66Q143.24 32.66 140.23 31.05Q137.22 29.44 135.49 26.45Q133.77 23.46 133.77 19.46L133.77 19.46Q133.77 15.50 135.52 12.49Q137.26 9.48 140.30 7.87Q143.34 6.26 147.11 6.26L147.11 6.26Q150.88 6.26 153.92 7.87Q156.95 9.48 158.70 12.49Q160.45 15.50 160.45 19.46L160.45 19.46Q160.45 23.41 158.68 26.43Q156.91 29.44 153.85 31.05Q150.79 32.66 147.02 32.66L147.02 32.66ZM147.02 25.85Q149.27 25.85 150.86 24.20Q152.44 22.54 152.44 19.46L152.44 19.46Q152.44 16.38 150.90 14.72Q149.36 13.06 147.11 13.06L147.11 13.06Q144.81 13.06 143.29 14.70Q141.77 16.33 141.77 19.46L141.77 19.46Q141.77 22.54 143.27 24.20Q144.76 25.85 147.02 25.85L147.02 25.85ZM176.13 25.62L178.94 25.62L178.94 32.29L174.94 32.29Q170.66 32.29 168.27 30.20Q165.88 28.11 165.88 23.37L165.88 23.37L165.88 13.16L162.75 13.16L162.75 6.62L165.88 6.62L165.88 0.37L173.74 0.37L173.74 6.62L178.89 6.62L178.89 13.16L173.74 13.16L173.74 23.46Q173.74 24.61 174.29 25.12Q174.85 25.62 176.13 25.62L176.13 25.62Z"></path></g></svg><!----></svg>